<svg viewBox="0 0 120 120" xmlns="http://www.w3.org/2000/svg">
  <defs>
    <linearGradient id="modernGradient" x1="0%" y1="0%" x2="100%" y2="100%">
      <stop offset="0%" stop-color="#0ea5e9"/>
      <stop offset="100%" stop-color="#22c55e"/>
    </linearGradient>
    <filter id="shadow" x="-20%" y="-20%" width="140%" height="140%">
      <feDropShadow dx="0" dy="1" stdDeviation="1" flood-color="rgba(0,0,0,0.25)" />
    </filter>
    <style>
      .ring {
        fill: none;
        stroke: url(#modernGradient);
        stroke-width: 10;
        stroke-linecap: round;
        stroke-dasharray: 250;
      }
      .server-rect {
        fill: #ffffff;
        stroke: url(#modernGradient);
        stroke-width: 3;
        rx: 5;
      }
      .server-line {
        stroke: url(#modernGradient);
        stroke-width: 2.2;
      }
      .server circle {
        stroke: #e5e7eb;
        stroke-width: 1;
      }
    </style>
  </defs>
  <path class="ring" d="M60,10 A50,50 0 1,1 59.9,10 M60,10 L72,24 M60,10 L48,24" filter="url(#shadow)"/>
  <g class="server">
    <rect class="server-rect" x="38" y="33" width="44" height="18"/>
    <line class="server-line" x1="38" y1="40" x2="82" y2="40"/>
    <rect class="server-rect" x="38" y="54" width="44" height="18"/>
    <line class="server-line" x1="38" y1="61" x2="82" y2="61"/>
    <rect class="server-rect" x="38" y="75" width="44" height="18"/>
    <line class="server-line" x1="38" y1="82" x2="82" y2="82"/>
    <circle cx="48" cy="42" r="2.6" fill="#0ea5e9"/>
    <circle cx="72" cy="42" r="2.6" fill="#22c55e"/>
    <circle cx="48" cy="63" r="2.6" fill="#22c55e"/>
    <circle cx="72" cy="63" r="2.6" fill="#0ea5e9"/>
    <circle cx="48" cy="84" r="2.6" fill="#0ea5e9"/>
    <circle cx="72" cy="84" r="2.6" fill="#22c55e"/>
  </g>
</svg>

